#!OML:ASF E:\emotionWalksFemale\Project 1\Capture day 1\Session 1\Female1.ASF
:FULLY-SPECIFIED
:DEGREES
451
root 8.7207 15.4362 18.6331 355.56 -5.79024 -359.409
lowerback 8.7148 -0.444899 1.24029
upperback -5.05554 -0.340951 1.01338
thorax -10.3175 -0.209172 0.448807
lowerneck -9.78461 -0.85021 -4.92062
upperneck 11.77 -1.14286 5.50926
head 5.20278 -0.407483 2.44366
rclavicle 2.98177e-016 -1.19271e-014
rhumerus -47.8112 1.93622 -74.0385
rradius 34.3508
rwrist 24.0769
rhand -0.589705 -56.7817
rfingers 7.12502
rthumb 25.0254 -805.162
lclavicle 2.98177e-016 -1.19271e-014
lhumerus -29.8551 -5.15328 88.4145
lradius 39.181
lwrist -8.7717
lhand -3.03982 -34.2309
lfingers 7.12502
lthumb 22.6758 -5.54312
rfemur 3.7567 21.4942 28.2794
rtibia 17.1137
rfoot -14.6669 -29.3754
rtoes -13.2339
lfemur -0.215744 -21.3656 -28.1404
ltibia 22.7983
lfoot -22.8137 26.7122
ltoes -23.242
452
root 8.71864 15.4487 18.6041 355.934 -6.01434 -360.028
lowerback 9.05949 -0.450868 1.78899
upperback -5.28696 -0.241686 1.23206
thorax -10.786 -0.192904 0.364394
lowerneck -9.64569 -0.860596 -4.87618
upperneck 11.6691 -1.16065 5.46901
head 5.14857 -0.419077 2.42148
rclavicle -4.27387e-015 -4.37326e-015
rhumerus -47.5958 1.47697 -74.3612
rradius 34.6327
rwrist 23.7528
rhand -0.620646 -56.5387
rfingers 7.12502
rthumb 24.9958 -804.924
lclavicle -4.27387e-015 -4.37326e-015
lhumerus -30.6841 -5.01875 88.7825
lradius 39.3745
lwrist -8.87477
lhand -2.79927 -33.9408
lfingers 7.12502
lthumb 22.9066 -5.28145
rfemur 3.35421 21.8116 28.8336
rtibia 16.7532
rfoot -14.0812 -29.3805
rtoes -12.9989
lfemur -0.939713 -21.3911 -27.1667
ltibia 23.0878
lfoot -23.2392 26.4278
ltoes -21.2832
453
root 8.71708 15.4649 18.5563 356.398 -6.34029 -360.765
lowerback 9.82493 -0.420972 2.42523
upperback -5.68274 -0.0497769 1.48798
thorax -11.6983 -0.143333 0.260791
lowerneck -9.52303 -0.853545 -4.86618
upperneck 11.7028 -1.15731 5.45594
head 5.1379 -0.419573 2.41614
rclavicle 5.76476e-015 5.96354e-015
rhumerus -47.5945 1.06296 -74.7158
rradius 35.1246
rwrist 23.4896
rhand -0.630602 -56.8389
rfingers 7.12502
rthumb 24.9862 -805.225
lclavicle 5.76476e-015 5.96354e-015
lhumerus -31.5902 -4.83242 89.1475
lradius 39.5116
lwrist -9.07402
lhand -2.30863 -34.0964
lfingers 7.12502
lthumb 23.3773 -5.49618
rfemur 2.47666 22.3406 29.4669
rtibia 16.9016
rfoot -13.6559 -29.4528
rtoes -12.1308
lfemur -1.73174 -21.1232 -25.9364
ltibia 23.0203
lfoot -22.7757 26.3603
ltoes -21.8723
454
root 8.7167 15.4656 18.5629 356.4 -6.48611 -360.575
lowerback 9.87443 -0.377662 2.26832
upperback -5.7518 -0.0151775 1.45271
thorax -11.8053 -0.117121 0.305325
lowerneck -9.40176 -0.814044 -4.97139
upperneck 11.6549 -1.10627 5.56733
head 5.10073 -0.393649 2.4717
rclavicle -1.67973e-014 -2.90226e-014
rhumerus -47.5594 0.74021 -75.1742
rradius 35.6536
rwrist 23.0349
rhand -0.761997 -57.0267
rfingers 7.12502
rthumb 24.8603 -805.43
lclavicle -1.67973e-014 -2.90226e-014
lhumerus -32.2762 -5.1441 89.6075
lradius 39.4792
lwrist -8.72181
lhand -1.19916 -34.1061
lfingers 7.12502
lthumb 24.4413 -5.64533
rfemur 2.81022 22.4234 29.2581
rtibia 16.2273
rfoot -13.2862 -29.3295
rtoes -11.7733
lfemur -1.93057 -21.1767 -26.1828
ltibia 23.5016
lfoot -23.0192 26.595
ltoes -21.6845
455
root 8.71966 15.4407 18.6391 355.615 -6.65565 -359.244
lowerback 8.59294 -0.233078 1.24371
upperback -4.93554 -0.0600015 1.01466
thorax -10.1107 -0.0734312 0.397153
lowerneck -9.64063 -0.852294 -4.99106
upperneck 11.3036 -1.13523 5.59229
head 5.03455 -0.404165 2.4782
rclavicle -7.95139e-015 -5.96354e-015
rhumerus -46.7003 0.205385 -75.7349
rradius 35.8573
rwrist 22.4815
rhand -0.582504 -57.0211
rfingers 7.12502
rthumb 25.0323 -805.401
lclavicle -7.95139e-015 -5.96354e-015
lhumerus -32.2037 -5.7423 90.0415
lradius 39.2316
lwrist -8.53775
lhand -1.16817 -33.7616
lfingers 7.12502
lthumb 24.471 -5.3048
rfemur 3.80465 21.8002 28.0398
rtibia 16.6259
rfoot -14.0612 -28.7413
rtoes -12.5517
lfemur -0.377272 -21.5651 -28.355
ltibia 23.1835
lfoot -23.9665 27.0202
ltoes -18.6693
456
root 8.70783 15.4766 18.5198 356.933 -6.40382 -361.151
lowerback 9.81359 -0.455659 2.72004
upperback -5.69069 -0.0385924 1.6222
thorax -11.7028 -0.154802 0.238798
lowerneck -9.67026 -0.832315 -4.92082
upperneck 11.3391 -1.10478 5.4853
head 5.048 -0.392773 2.43552
rclavicle -9.54166e-015 9.14409e-015
rhumerus -46.484 0.0364867 -76.3341
rradius 36.0567
rwrist 22.0261
rhand -0.388877 -56.8152
rfingers 7.12502
rthumb 25.2178 -805.169
lclavicle -9.54166e-015 9.14409e-015
lhumerus -32.9395 -5.79632 90.4747
lradius 38.989
lwrist -9.11648
lhand -1.83567 -33.7463
lfingers 7.12502
lthumb 23.831 -5.20451
rfemur 1.52794 22.4221 29.6453
rtibia 17.1677
rfoot -13.5349 -29.3055
rtoes -11.6048
lfemur -2.40666 -20.9857 -25.0901
ltibia 22.8348
lfoot -23.133 25.4746
ltoes -16.7712
457
root 8.71632 15.4422 18.64 355.786 -6.63097 -359.147
lowerback 8.61394 -0.276518 1.12476
upperback -5.07664 -0.13334 0.995886
thorax -10.2795 -0.102011 0.458158
lowerneck -9.55466 -0.805091 -4.76194
upperneck 11.3415 -1.07644 5.33076
head 5.02622 -0.383795 2.36283
rclavicle -1.38155e-014 -2.62396e-014
rhumerus -46.4113 -0.061254 -76.9998
rradius 36.4272
rwrist 21.6204
rhand -0.0552749 -56.7717
rfingers 7.12502
rthumb 25.5374 -805.08
lclavicle -1.38155e-014 -2.62396e-014
lhumerus -33.698 -5.68506 90.8488
lradius 38.801
lwrist -9.38107
lhand -1.45889 -33.4923
lfingers 7.12502
lthumb 24.1923 -4.99812
rfemur 3.05301 21.7142 27.8357
rtibia 17.7418
rfoot -14.6341 -28.6436
rtoes -12.2807
lfemur -0.122427 -21.626 -28.4058
ltibia 22.3239
lfoot -23.523 27.0179
ltoes -18.0141
458
root 8.71266 15.4408 18.6382 355.903 -6.52511 -359.196
lowerback 9.49147 -0.344193 1.07498
upperback -5.73623 -0.199456 1.05881
thorax -11.548 -0.12936 0.581222
lowerneck -9.06643 -0.732594 -4.6677
upperneck 11.8045 -1.009 5.18538
head 5.08198 -0.362182 2.30948
rclavicle 7.45443e-015 -1.59028e-014
rhumerus -47.1879 0.248015 -77.7091
rradius 36.8378
rwrist 21.1247
rhand 0.185718 -56.896
rfingers 7.12502
rthumb 25.7682 -805.171
lclavicle 7.45443e-015 -1.59028e-014
lhumerus -35.4316 -5.44505 91.3146
lradius 38.9463
lwrist -9.04549
lhand 0.0450179 -32.7962
lfingers 7.12502
lthumb 25.6335 -4.50165
rfemur 2.9366 21.4086 27.7895
rtibia 17.6647
rfoot -14.6731 -28.3994
rtoes -11.9721
lfemur -0.209918 -21.0111 -28.2827
ltibia 22.3574
lfoot -22.3212 27.2475
ltoes -22.846
459
root 8.71354 15.4427 18.644 355.889 -6.67822 -359.307
lowerback 8.60136 -0.297599 1.2953
upperback -5.0886 -0.134724 1.04652
thorax -10.2861 -0.112504 0.416837
lowerneck -9.67675 -0.775318 -4.67583
upperneck 11.523 -1.04199 5.26691
head 5.10044 -0.365449 2.33253
rclavicle -1.22253e-014 3.02153e-014
rhumerus -45.8349 0.0367397 -78.5004
rradius 36.9124
rwrist 20.5963
rhand 0.117663 -56.7658
rfingers 7.12502
rthumb 25.7031 -805.05
lclavicle -1.22253e-014 3.02153e-014
lhumerus -35.0415 -5.64045 91.5683
lradius 38.8497
lwrist -8.69818
lhand 1.41562 -32.5594
lfingers 7.12502
lthumb 26.9456 -4.46061
rfemur 2.64623 21.1443 27.8458
rtibia 18.2563
rfoot -14.9451 -28.0475
rtoes -12.2023
lfemur 0.0548901 -21.5504 -28.2067
ltibia 21.8589
lfoot -23.0391 27.0685
ltoes -18.0399
